<svg xmlns="http://www.w3.org/2000/svg" width="12" height="11" viewBox="0 0 12 11">
  <defs>
    <style>
      .cls-1 {
        fill: #fff;
        fill-rule: evenodd;
      }
    </style>
  </defs>
  <path id="Forma_1_copy" data-name="Forma 1 copy" class="cls-1" d="M376.937,6268.97a1.276,1.276,0,0,1-.045.24,8.672,8.672,0,0,1-.735,1.21c-0.307.52-2.919-.6-2.582-1.29a7.11,7.11,0,0,0,.659-1.24,0.548,0.548,0,0,0-.578-0.48c-0.775-.07-1.764-0.01-2.587,0h-0.137c-0.823-.01-1.813-0.07-2.588,0a0.548,0.548,0,0,0-.578.48,7.1,7.1,0,0,0,.658,1.24c0.338,0.69-2.274,1.81-2.581,1.29a8.672,8.672,0,0,1-.735-1.21,1.276,1.276,0,0,1-.045-0.24,3.4,3.4,0,0,1,3.317-3.84c0.849-.07,1.7-0.11,2.552-0.13h0.137c0.851,0.02,1.7.06,2.552,0.13A3.4,3.4,0,0,1,376.937,6268.97Zm-1.527,6.24a0.686,0.686,0,0,1-.6.79h-7.625a0.685,0.685,0,0,1-.6-0.79l0.222-3.95a3.81,3.81,0,0,0,2.215-1.37,1.177,1.177,0,0,0,.06-1.12c-0.044-.09-0.125-0.23-0.219-0.38h0c0-.01,0-0.01,0-0.01h4.15s0,0-.007.01a0.676,0.676,0,0,0-.06.31c-0.012.02-.028,0.05-0.038,0.07a1.183,1.183,0,0,0,.062,1.12,3.86,3.86,0,0,0,2.215,1.37Zm-4.15-2.75a0.818,0.818,0,0,0,.513-0.77,0.775,0.775,0,1,0-1.547,0,0.818,0.818,0,0,0,.513.77l-0.47,1.44h1.46Z" transform="translate(-365 -6265)"/>
</svg>
