<svg xmlns="http://www.w3.org/2000/svg" width="25" height="30" viewBox="0 0 25 30">
  <defs>
    <style>
      .cls-1 {
        fill: #fff;
        fill-rule: evenodd;
      }
    </style>
  </defs>
  <path id="Forma_1" data-name="Forma 1" class="cls-1" d="M997.989,6310.49V6318H974.441v-7.51a6.866,6.866,0,0,1,.91-3.42,4.5,4.5,0,0,0,3.742,1.73,3.557,3.557,0,0,0,2.048-.81,1.776,1.776,0,0,0,.324-0.29,4.916,4.916,0,0,0,.6-0.97c0.065-.13.13-0.26,0.205-0.39a1.305,1.305,0,0,0,.171-0.77,9.183,9.183,0,0,0,3.774.81,9.337,9.337,0,0,0,6.379-2.54A6.733,6.733,0,0,1,997.989,6310.49Zm-21.224-15.24c-0.12-.01-0.239-0.03-0.358-0.05a14.546,14.546,0,0,1,5.847-6.2l-0.009.01a8.289,8.289,0,0,1,7.985.03l-0.02-.04a14.791,14.791,0,0,1,7.432,13.29,24.728,24.728,0,0,1-.191,3.03s-2.415-2.86-5.136-2.66a8.328,8.328,0,0,1-12.2,0,4.535,4.535,0,0,0-2.215.47c-0.064-.14-0.129-0.27-0.192-0.41-0.048-.1-0.094-0.2-0.142-0.3l0-.01-1.085-2.22c0.106,0.01.2,0.02,0.271,0.02,0.318,0,1.359-.14,1.44-1.98C978.24,6297.18,977.993,6295.37,976.765,6295.25Zm2.547,1.86a6.909,6.909,0,0,0,13.808-.02c-1.925-1.48-6.536-4.37-6.819-6.26l-0.068-.05-0.071.05C985.879,6292.73,981.216,6295.64,979.312,6297.11Zm1.191,10.05a0.8,0.8,0,0,0,.18-0.15,8.413,8.413,0,0,0,.706-1.21c0.3-.52-1.846-2.44-2.287-1.82a6.9,6.9,0,0,1-.767,1.16,0.553,0.553,0,0,1-.674-0.32c-0.41-.69-0.811-1.64-1.182-2.4h0c-0.01-.02-0.019-0.04-0.031-0.06s-0.019-.05-0.031-0.07v0.01c-0.38-.77-0.885-1.66-1.182-2.4a0.576,0.576,0,0,1,.146-0.75,7.049,7.049,0,0,1,1.371.06c0.747,0.01.511-2.91-.072-2.96a9.2,9.2,0,0,0-1.376-.15,0.95,0.95,0,0,0-.224.07c-1.724.44-2.63,2.62-1.778,4.77,0.326,0.81.68,1.62,1.054,2.42h0q0.018,0.03.033,0.06l0.029,0.06h0q0.6,1.17,1.277,2.31C976.873,6307.76,979.128,6308.32,980.5,6307.16Z" transform="translate(-973 -6288)"/>
</svg>
